<svg xmlns="http://www.w3.org/2000/svg" viewBox="0 0 576 384"><defs><style>.cls-1{fill:#fff;}</style></defs><title>Fichier 3</title><g id="Calque_2" data-name="Calque 2"><g id="Calque_1-2" data-name="Calque 1"><path d="M128,96H448V288H128Zm400,96a48,48,0,0,0,48,48v96a48,48,0,0,1-48,48H48A48,48,0,0,1,0,336V240a48,48,0,0,0,0-96V48A48,48,0,0,1,48,0H528a48,48,0,0,1,48,48v96A48,48,0,0,0,528,192ZM480,88a24,24,0,0,0-24-24H120A24,24,0,0,0,96,88V296a24,24,0,0,0,24,24H456a24,24,0,0,0,24-24Z"/><path class="cls-1" d="M231.09,183.87a16.26,16.26,0,1,0-16.26-16.26A16.27,16.27,0,0,0,231.09,183.87Zm113.82,0a16.26,16.26,0,1,0-16.26-16.26A16.28,16.28,0,0,0,344.91,183.87ZM353,192H336.78a16.19,16.19,0,0,0-11.46,4.73,37.16,37.16,0,0,1,19.08,27.79h16.77a8.12,8.12,0,0,0,8.12-8.13v-8.13A16.27,16.27,0,0,0,353,192Zm-65,0a28.46,28.46,0,1,0-28.45-28.45A28.43,28.43,0,0,0,288,192Zm19.51,8.13H305.4a39.32,39.32,0,0,1-34.8,0h-2.11a29.28,29.28,0,0,0-29.27,29.27v7.31a12.21,12.21,0,0,0,12.2,12.2h73.16a12.21,12.21,0,0,0,12.2-12.2V229.4A29.28,29.28,0,0,0,307.51,200.13Zm-56.83-3.4A16.19,16.19,0,0,0,239.22,192H223a16.27,16.27,0,0,0-16.25,16.26v8.13a8.12,8.12,0,0,0,8.12,8.13h16.75a37.23,37.23,0,0,1,19.1-27.79Z"/></g></g></svg>