<svg xmlns="http://www.w3.org/2000/svg" viewBox="0 0 576 384"><defs><style>.cls-1{font-size:125px;fill:#fff;font-family:ArialRoundedMTBold, Arial Rounded MT Bold;}</style></defs><title>Fichier 4</title><g id="Calque_2" data-name="Calque 2"><g id="Calque_1-2" data-name="Calque 1"><path d="M128,96H448V288H128Zm400,96a48,48,0,0,0,48,48v96a48,48,0,0,1-48,48H48A48,48,0,0,1,0,336V240a48,48,0,0,0,0-96V48A48,48,0,0,1,48,0H528a48,48,0,0,1,48,48v96A48,48,0,0,0,528,192ZM480,88a24,24,0,0,0-24-24H120A24,24,0,0,0,96,88V296a24,24,0,0,0,24,24H456a24,24,0,0,0,24-24Z"/><text class="cls-1" transform="translate(250.86 232.39)">1</text></g></g></svg>